# xmcd CD database file
#
# Track frame offsets:
#	150
#	9450
#	22130
#	35587
#	47007
#	61410
#	72437
#	89832
#	101610
#	115860
#	129512
#	143315
#	160182
#	170712
#	185575
#	201625
#
# Disc length: 2819 seconds
#
# Revision: 0
# Processed by: cddbd v1.5.1PL0 Copyright (c) Steve Scherf et al.
# Submitted via: CDex 1.51
#
DISCID=ea0b0110
DTITLE=Poacher - Country Rock
DYEAR=1994
DGENRE=Country
TTITLE0=Louisiana saturday night
TTITLE1=Misty
TTITLE2=Afternoon delight
TTITLE3=Semi truck
TTITLE4=Star love
TTITLE5=Reason
TTITLE6=Garden party
TTITLE7=Rhythm of the rain
TTITLE8=You are no angel
TTITLE9=Lay down sally
TTITLE10=Shot full of love
TTITLE11=When you were sixteen
TTITLE12=After the gold rush
TTITLE13=Darlin'
TTITLE14=Another bottle
TTITLE15=Truck drivin' man
EXTD=YEAR: 1994
EXTT0=
EXTT1=
EXTT2=
EXTT3=
EXTT4=
EXTT5=
EXTT6=
EXTT7=
EXTT8=
EXTT9=
EXTT10=
EXTT11=
EXTT12=
EXTT13=
EXTT14=
EXTT15=
PLAYORDER=
